<svg width="152" height="24" viewBox="0 0 152 24" fill="none" xmlns="http://www.w3.org/2000/svg">
<path d="M11.6413 0.726795C11.788 0.429497 12.212 0.429496 12.3587 0.726794L15.4336 6.95732C15.4919 7.07538 15.6045 7.15721 15.7348 7.17614L22.6106 8.17525C22.9387 8.22292 23.0697 8.62611 22.8323 8.85753L17.8569 13.7073C17.7627 13.7992 17.7196 13.9316 17.7419 14.0614L18.9164 20.9094C18.9725 21.2361 18.6295 21.4853 18.336 21.3311L12.1861 18.0979C12.0696 18.0366 11.9304 18.0366 11.8139 18.0979L5.66397 21.3311C5.37052 21.4853 5.02754 21.2361 5.08359 20.9094L6.25811 14.0614C6.28037 13.9316 6.23735 13.7992 6.14307 13.7073L1.1677 8.85753C0.930296 8.62611 1.0613 8.22292 1.38939 8.17525L8.26518 7.17614C8.39547 7.15721 8.50809 7.07538 8.56636 6.95732L11.6413 0.726795Z" fill="#F4A641"/>
<path d="M43.6413 0.726795C43.788 0.429497 44.212 0.429496 44.3587 0.726794L47.4336 6.95732C47.4919 7.07538 47.6045 7.15721 47.7348 7.17614L54.6106 8.17525C54.9387 8.22292 55.0697 8.62611 54.8323 8.85753L49.8569 13.7073C49.7627 13.7992 49.7196 13.9316 49.7419 14.0614L50.9164 20.9094C50.9725 21.2361 50.6295 21.4853 50.336 21.3311L44.1861 18.0979C44.0696 18.0366 43.9304 18.0366 43.8139 18.0979L37.664 21.3311C37.3705 21.4853 37.0275 21.2361 37.0836 20.9094L38.2581 14.0614C38.2804 13.9316 38.2373 13.7992 38.1431 13.7073L33.1677 8.85753C32.9303 8.62611 33.0613 8.22292 33.3894 8.17525L40.2652 7.17614C40.3955 7.15721 40.5081 7.07538 40.5664 6.95732L43.6413 0.726795Z" fill="#F4A641"/>
<path d="M75.6413 0.726795C75.788 0.429497 76.212 0.429496 76.3587 0.726794L79.4336 6.95732C79.4919 7.07538 79.6045 7.15721 79.7348 7.17614L86.6106 8.17525C86.9387 8.22292 87.0697 8.62611 86.8323 8.85753L81.8569 13.7073C81.7627 13.7992 81.7196 13.9316 81.7419 14.0614L82.9164 20.9094C82.9725 21.2361 82.6295 21.4853 82.336 21.3311L76.1861 18.0979C76.0696 18.0366 75.9304 18.0366 75.8139 18.0979L69.664 21.3311C69.3705 21.4853 69.0275 21.2361 69.0836 20.9094L70.2581 14.0614C70.2804 13.9316 70.2373 13.7992 70.1431 13.7073L65.1677 8.85753C64.9303 8.62611 65.0613 8.22292 65.3894 8.17525L72.2652 7.17614C72.3955 7.15721 72.5081 7.07538 72.5664 6.95732L75.6413 0.726795Z" fill="#F4A641"/>
<path d="M107.641 0.726795C107.788 0.429497 108.212 0.429496 108.359 0.726794L111.434 6.95732C111.492 7.07538 111.605 7.15721 111.735 7.17614L118.611 8.17525C118.939 8.22292 119.07 8.62611 118.832 8.85753L113.857 13.7073C113.763 13.7992 113.72 13.9316 113.742 14.0614L114.916 20.9094C114.972 21.2361 114.629 21.4853 114.336 21.3311L108.186 18.0979C108.07 18.0366 107.93 18.0366 107.814 18.0979L101.664 21.3311C101.371 21.4853 101.028 21.2361 101.084 20.9094L102.258 14.0614C102.28 13.9316 102.237 13.7992 102.143 13.7073L97.1677 8.85753C96.9303 8.62611 97.0613 8.22292 97.3894 8.17525L104.265 7.17614C104.395 7.15721 104.508 7.07538 104.566 6.95732L107.641 0.726795Z" fill="#F4A641"/>
<path d="M139.641 0.726795C139.788 0.429497 140.212 0.429496 140.359 0.726794L143.434 6.95732C143.492 7.07538 143.605 7.15721 143.735 7.17614L150.611 8.17525C150.939 8.22292 151.07 8.62611 150.832 8.85753L145.857 13.7073C145.763 13.7992 145.72 13.9316 145.742 14.0614L146.916 20.9094C146.972 21.2361 146.629 21.4853 146.336 21.3311L140.186 18.0979C140.07 18.0366 139.93 18.0366 139.814 18.0979L133.664 21.3311C133.371 21.4853 133.028 21.2361 133.084 20.9094L134.258 14.0614C134.28 13.9316 134.237 13.7992 134.143 13.7073L129.168 8.85753C128.93 8.62611 129.061 8.22292 129.389 8.17525L136.265 7.17614C136.395 7.15721 136.508 7.07538 136.566 6.95732L139.641 0.726795Z" fill="#F4A641"/>
</svg>
