<svg width="20" height="20" viewBox="0 0 20 20" fill="none" xmlns="http://www.w3.org/2000/svg">
<g clip-path="url(#clip0_291_957)">
<path d="M20 12.1598V19.5551H15.7124V12.6554C15.7124 10.923 15.0934 9.7399 13.541 9.7399C12.3563 9.7399 11.6525 10.5364 11.3417 11.3077C11.2288 11.5833 11.1997 11.966 11.1997 12.3526V19.5548H6.91181C6.91181 19.5548 6.96937 7.86902 6.91181 6.65939H11.2V8.48678C11.1914 8.50117 11.1793 8.51524 11.1716 8.52899H11.2V8.48678C11.7698 7.61002 12.786 6.35658 15.0643 6.35658C17.8851 6.35658 20 8.19964 20 12.1598ZM2.4263 0.443359C0.959582 0.443359 0 1.40614 0 2.67109C0 3.90918 0.931764 4.89978 2.37002 4.89978H2.39784C3.89333 4.89978 4.82317 3.90918 4.82317 2.67109C4.79472 1.40614 3.89333 0.443359 2.4263 0.443359ZM0.254844 19.5551H4.54115V6.65939H0.254844V19.5551Z" fill="#FD6038"/>
</g>
<defs>
<clipPath id="clip0_291_957">
<rect width="20" height="20" fill="white"/>
</clipPath>
</defs>
</svg>
