<svg width="20" height="20" viewBox="0 0 20 20" fill="none" xmlns="http://www.w3.org/2000/svg">
<path d="M10.0026 0C6.32668 0 3.33594 2.99074 3.33594 6.66668C3.33594 7.7702 3.61184 8.86434 4.13633 9.8348L9.63805 19.7852C9.71129 19.9178 9.85086 20 10.0026 20C10.1544 20 10.2939 19.9178 10.3672 19.7852L15.8709 9.83152C16.3934 8.86434 16.6693 7.77016 16.6693 6.66664C16.6693 2.99074 13.6786 0 10.0026 0ZM10.0026 10C8.16465 10 6.6693 8.50465 6.6693 6.66668C6.6693 4.82871 8.16465 3.33336 10.0026 3.33336C11.8406 3.33336 13.3359 4.82871 13.3359 6.66668C13.3359 8.50465 11.8406 10 10.0026 10Z" fill="#FD6038"/>
</svg>
