<svg width="30" height="31" viewBox="0 0 30 31" fill="none" xmlns="http://www.w3.org/2000/svg">
<path fill-rule="evenodd" clip-rule="evenodd" d="M10.8783 0.447266C9.24055 0.448474 7.91509 1.7749 7.9163 3.40939C7.91509 5.04387 9.24176 6.3703 10.8795 6.37151H13.8427V3.4106C13.8439 1.77611 12.5173 0.449682 10.8783 0.447266C10.8795 0.447266 10.8795 0.447266 10.8783 0.447266V0.447266ZM10.8783 8.34787H2.97884C1.34108 8.34907 0.0144178 9.67551 0.0156283 11.31C0.0132074 12.9445 1.33987 14.2709 2.97763 14.2733H10.8783C12.5161 14.2721 13.8427 12.9457 13.8415 11.3112C13.8427 9.67551 12.5161 8.34907 10.8783 8.34787Z" fill="#C4C4C4"/>
<path fill-rule="evenodd" clip-rule="evenodd" d="M29.6428 11.31C29.644 9.67551 28.3173 8.34907 26.6796 8.34787C25.0418 8.34907 23.7152 9.67551 23.7164 11.31V14.2733H26.6796C28.3173 14.2721 29.644 12.9457 29.6428 11.31ZM21.7421 11.31V3.40939C21.7433 1.77611 20.4179 0.449682 18.7801 0.447266C17.1424 0.448474 15.8157 1.7749 15.8169 3.40939V11.31C15.8145 12.9445 17.1411 14.2709 18.7789 14.2733C20.4166 14.2721 21.7433 12.9457 21.7421 11.31Z" fill="#C4C4C4"/>
<path fill-rule="evenodd" clip-rule="evenodd" d="M18.7801 30.0753C20.4179 30.0741 21.7445 28.7477 21.7433 27.1132C21.7445 25.4787 20.4179 24.1523 18.7801 24.1511H15.8169V27.1132C15.8157 28.7465 17.1423 30.0729 18.7801 30.0753ZM18.7801 22.1735H26.6808C28.3185 22.1723 29.6452 20.8459 29.644 19.2114C29.6464 17.5769 28.3197 16.2505 26.682 16.248H18.7813C17.1436 16.2493 15.8169 17.5757 15.8181 19.2102C15.8169 20.8459 17.1423 22.1723 18.7801 22.1735Z" fill="#C4C4C4"/>
<path fill-rule="evenodd" clip-rule="evenodd" d="M0.0156258 19.2102C0.0144154 20.8447 1.34108 22.1711 2.97883 22.1723C4.61659 22.1711 5.94325 20.8447 5.94204 19.2102V16.248H2.97883C1.34108 16.2493 0.0144154 17.5757 0.0156258 19.2102ZM7.9163 19.2102V27.1108C7.91388 28.7453 9.24055 30.0717 10.8783 30.0741C12.5161 30.0729 13.8427 28.7465 13.8415 27.112V19.2126C13.8439 17.5781 12.5173 16.2517 10.8795 16.2493C9.24055 16.2493 7.91509 17.5757 7.9163 19.2102C7.9163 19.2114 7.9163 19.2102 7.9163 19.2102Z" fill="#C4C4C4"/>
</svg>
