<svg width="364" height="251" viewBox="0 0 364 251" fill="none" xmlns="http://www.w3.org/2000/svg">
<g filter="url(#filter0_d_291_836)">
<rect x="79.9956" y="35" width="204" height="91" rx="12" fill="white"/>
</g>
<path d="M191.621 68.1031V70.8699C191.628 71.0554 191.708 71.2306 191.844 71.3578C191.979 71.485 192.159 71.554 192.344 71.5501H198.771L191.366 82.146C190.898 82.8272 190.898 83.5928 190.898 84.0183V86.8266C190.898 87.2522 191.366 87.6776 191.792 87.4649C195.962 85.2095 201.026 85.4222 204.813 87.4223C205.281 87.6774 205.706 87.2096 205.706 86.784V83.8478C205.664 83.4649 205.536 83.0393 205.068 82.784C202.941 81.5928 200.43 81.2524 198.047 81.295L204.43 72.1884C205.026 71.337 205.366 70.8266 205.366 70.4436V68.1031C205.359 67.9175 205.279 67.7422 205.143 67.6148C205.008 67.4875 204.828 67.4183 204.642 67.4222H192.302C192.211 67.4174 192.12 67.4317 192.036 67.4642C191.951 67.4967 191.874 67.5467 191.81 67.6109C191.745 67.6752 191.695 67.7522 191.663 67.837C191.63 67.9218 191.616 68.0125 191.621 68.1031Z" fill="#C4C4C4"/>
<path d="M142.897 88.0184H146.641C146.825 88.0249 147.005 87.9635 147.146 87.8458C147.288 87.728 147.38 87.5622 147.407 87.3802V77.1672C147.407 77.1005 147.407 77.0331 147.407 76.9651C147.405 74.7332 147.401 71.8479 150.003 71.8479C152.378 71.8479 152.339 74.4351 152.308 76.5037C152.304 76.7326 152.301 76.9552 152.301 77.1672V87.3802C152.301 87.7208 152.599 88.0185 152.982 88.0611H156.727C156.912 88.065 157.092 87.9959 157.227 87.8685C157.363 87.7412 157.443 87.5659 157.45 87.3802V77.1672C157.45 77.0697 157.45 76.9682 157.449 76.8636C157.446 75.7808 157.441 74.3574 157.79 73.465C157.972 73.0112 158.282 72.6204 158.683 72.3406C159.083 72.0609 159.557 71.9044 160.046 71.8905C161.152 71.8905 161.961 72.2735 162.259 73.5501C162.392 74.1512 162.368 75.5384 162.352 76.4985C162.348 76.7619 162.344 76.9931 162.344 77.1672V87.3802C162.344 87.7208 162.642 88.0185 163.025 88.0611H166.727C166.913 88.065 167.093 87.9959 167.228 87.8685C167.363 87.7412 167.443 87.5659 167.451 87.3802V75.2098C167.451 74.8997 167.456 74.5839 167.462 74.2657C167.494 72.4445 167.528 70.5437 166.514 69.1672C165.45 67.6777 163.748 67.0394 162.174 67.0394C159.961 67.0394 157.875 68.1883 156.982 70.6139C155.96 68.1883 154.471 67.0394 152.131 67.0394C149.833 67.0394 148.088 68.1883 147.194 70.6139H147.109V68.1031C147.096 67.9311 147.018 67.7704 146.892 67.6523C146.766 67.5343 146.601 67.4675 146.428 67.4648H142.939C142.753 67.461 142.573 67.5301 142.438 67.6575C142.303 67.7848 142.223 67.9601 142.216 68.1457V87.3801C142.243 87.5465 142.325 87.6991 142.448 87.8145C142.571 87.9298 142.729 88.0015 142.897 88.0184Z" fill="#C4C4C4"/>
<path fill-rule="evenodd" clip-rule="evenodd" d="M224.6 77.8907C224.6 71.8054 221.579 67.0394 216.004 67.0394C210.557 67.0394 207.536 71.7202 207.579 77.7204C207.579 83.678 210.557 88.444 216.004 88.444C221.281 88.444 224.6 83.7632 224.6 77.8907ZM213.068 77.1247C213.068 74.7842 213.238 70.9969 216.004 70.9969C217.196 70.9969 218.047 71.5074 218.472 72.8692C218.941 74.4012 219.026 76.3586 219.026 77.9757C219.026 80.4439 218.856 84.4865 215.962 84.4865C213.066 84.4865 213.068 79.6036 213.068 77.2237L213.068 77.1247Z" fill="#C4C4C4"/>
<path d="M228.047 88.0184H231.792C231.98 88.0167 232.162 87.9472 232.302 87.822C232.443 87.6968 232.534 87.5248 232.558 87.3379V76.9542C232.558 75.635 232.643 74.4856 233.153 73.2945C233.579 72.3581 234.43 71.7626 235.324 71.7626C237.711 71.7626 237.687 74.3541 237.667 76.4255C237.666 76.6065 237.664 76.7835 237.664 76.9544V87.4225C237.707 87.7202 238.005 87.9754 238.345 88.018H242.09C242.263 88.0257 242.432 87.9691 242.566 87.8591C242.7 87.7491 242.788 87.5936 242.813 87.4225V75.2946C242.813 73.4222 242.813 70.8264 241.835 69.2944C240.771 67.6346 239.111 67.039 237.452 67.039C234.856 67.039 233.409 68.273 232.345 70.9114H232.26V67.9752C232.222 67.8215 232.135 67.6843 232.012 67.5845C231.889 67.4846 231.737 67.4276 231.579 67.422H228.09C227.912 67.4233 227.742 67.4887 227.609 67.6059C227.476 67.7232 227.39 67.8846 227.366 68.0603V87.3375C227.366 87.678 227.664 87.9758 228.047 88.0184Z" fill="#C4C4C4"/>
<path fill-rule="evenodd" clip-rule="evenodd" d="M185.145 88.1622C185.306 88.147 185.457 88.0818 185.578 87.9759L185.58 87.9758C185.852 87.7492 186.199 87.4529 186.569 87.1364C187.243 86.5613 187.995 85.9194 188.516 85.5077C188.814 85.295 188.771 84.8694 188.516 84.529C188.434 84.4111 188.351 84.2963 188.269 84.1824C187.671 83.3515 187.112 82.5741 187.112 81.0396V75.2097C187.112 75.0148 187.113 74.8211 187.114 74.6285C187.126 72.3829 187.138 70.3092 185.452 68.7414C184.005 67.3372 181.622 66.8691 179.793 66.8691C176.218 66.8691 172.26 68.1883 171.409 72.614C171.324 73.0822 171.665 73.2949 171.963 73.3799L175.58 73.7629C175.92 73.7629 176.133 73.4224 176.218 73.082C176.516 71.55 177.793 70.8266 179.239 70.8266C180.005 70.8266 180.856 71.1244 181.324 71.8053C181.813 72.4825 181.803 73.3928 181.794 74.212C181.793 74.3194 181.792 74.4252 181.792 74.5288V74.9968C181.439 75.0383 181.068 75.0776 180.686 75.1181C178.716 75.3267 176.439 75.5679 174.728 76.316C172.387 77.3374 170.727 79.38 170.727 82.4438C170.727 86.3162 173.196 88.2737 176.345 88.2737C178.983 88.2737 180.472 87.6348 182.515 85.5503C182.614 85.6932 182.705 85.8261 182.79 85.9521C183.291 86.6891 183.631 87.1889 184.685 88.061C184.824 88.1421 184.985 88.1775 185.145 88.1622ZM181.791 79.0554C181.791 78.9798 181.791 78.9036 181.791 78.8269V78.019C179.068 78.019 176.217 78.6148 176.217 81.8063C176.217 83.4234 177.068 84.5298 178.514 84.5298C179.578 84.5298 180.515 83.8915 181.11 82.8276C181.795 81.5778 181.793 80.4049 181.791 79.0554Z" fill="#C4C4C4"/>
<path fill-rule="evenodd" clip-rule="evenodd" d="M135.953 88.1622C136.113 88.147 136.264 88.0818 136.386 87.9759L136.387 87.9758C136.659 87.7492 137.006 87.4529 137.377 87.1364C138.05 86.5613 138.802 85.9194 139.323 85.5077C139.621 85.295 139.579 84.8694 139.323 84.529C139.241 84.4111 139.159 84.2963 139.077 84.1825C138.479 83.3515 137.919 82.5741 137.919 81.0396V75.2097C137.919 75.0148 137.92 74.8211 137.921 74.6285C137.933 72.3829 137.945 70.3092 136.259 68.7414C134.813 67.3372 132.43 66.8691 130.6 66.8691C127.025 66.8691 123.068 68.1883 122.217 72.614C122.132 73.0822 122.472 73.2949 122.77 73.3799L126.387 73.7629C126.728 73.7629 126.94 73.4224 127.025 73.082C127.323 71.55 128.6 70.8266 130.047 70.8266C130.812 70.8266 131.663 71.1244 132.131 71.8053C132.62 72.4825 132.61 73.3928 132.602 74.2121C132.6 74.3194 132.599 74.4252 132.599 74.5288V74.9968C132.246 75.0383 131.876 75.0776 131.493 75.1181C129.524 75.3267 127.246 75.5679 125.535 76.316C123.194 77.3374 121.535 79.38 121.535 82.4438C121.535 86.3162 124.003 88.2737 127.152 88.2737C129.79 88.2737 131.28 87.6348 133.322 85.5503C133.422 85.6932 133.512 85.8261 133.598 85.9521C134.099 86.6891 134.439 87.1889 135.492 88.061C135.631 88.1421 135.792 88.1775 135.953 88.1622ZM132.641 79.0554C132.641 78.9798 132.641 78.9036 132.641 78.8269V78.019C129.918 78.019 127.066 78.6148 127.066 81.8063C127.066 83.4234 127.917 84.5298 129.364 84.5298C130.428 84.5298 131.365 83.8915 131.96 82.8276C132.645 81.5778 132.643 80.4049 132.641 79.0554Z" fill="#C4C4C4"/>
<path d="M199.706 92.0611C198.812 90.9121 193.748 91.5078 191.493 91.8058C190.812 91.8908 190.684 91.2951 191.322 90.8695C195.365 88.0184 201.961 88.8694 202.727 89.8057C203.493 90.7419 202.514 97.3798 198.726 100.529C198.131 100.997 197.577 100.742 197.833 100.104L197.877 99.9924C198.749 97.8156 200.584 93.2319 199.706 92.0611Z" fill="#C4C4C4"/>
<path d="M196.77 95.4231C189.748 100.615 179.535 103.381 170.726 103.381C158.386 103.381 147.322 98.8275 138.896 91.2529C138.258 90.6574 138.811 89.8487 139.619 90.3167C148.683 95.5934 159.875 98.7424 171.45 98.7424C179.237 98.7424 187.833 97.1254 195.748 93.7635C196.939 93.2955 197.919 94.5721 196.77 95.4231Z" fill="#C4C4C4"/>
<defs>
<filter id="filter0_d_291_836" x="-0.00439453" y="0" width="364" height="251" filterUnits="userSpaceOnUse" color-interpolation-filters="sRGB">
<feFlood flood-opacity="0" result="BackgroundImageFix"/>
<feColorMatrix in="SourceAlpha" type="matrix" values="0 0 0 0 0 0 0 0 0 0 0 0 0 0 0 0 0 0 127 0" result="hardAlpha"/>
<feOffset dy="45"/>
<feGaussianBlur stdDeviation="40"/>
<feColorMatrix type="matrix" values="0 0 0 0 0 0 0 0 0 0 0 0 0 0 0 0 0 0 0.04 0"/>
<feBlend mode="normal" in2="BackgroundImageFix" result="effect1_dropShadow_291_836"/>
<feBlend mode="normal" in="SourceGraphic" in2="effect1_dropShadow_291_836" result="shape"/>
</filter>
</defs>
</svg>
